<svg width="116" height="20" viewBox="0 0 116 20" fill="none" xmlns="http://www.w3.org/2000/svg">
<g clip-path="url(#clip0_134_23975)">
<path d="M4.85425 17.4998L6.20841 11.6457L1.66675 7.70817L7.66675 7.18734L10.0001 1.6665L12.3334 7.18734L18.3334 7.70817L13.7917 11.6457L15.1459 17.4998L10.0001 14.3957L4.85425 17.4998Z" fill="#101014"/>
<path d="M28.8542 17.4998L30.2084 11.6457L25.6667 7.70817L31.6667 7.18734L34.0001 1.6665L36.3334 7.18734L42.3334 7.70817L37.7917 11.6457L39.1459 17.4998L34.0001 14.3957L28.8542 17.4998Z" fill="#101014"/>
<path d="M52.8542 17.4998L54.2084 11.6457L49.6667 7.70817L55.6667 7.18734L58.0001 1.6665L60.3334 7.18734L66.3334 7.70817L61.7917 11.6457L63.1459 17.4998L58.0001 14.3957L52.8542 17.4998Z" fill="#101014"/>
<path d="M76.8542 17.4998L78.2084 11.6457L73.6667 7.70817L79.6667 7.18734L82.0001 1.6665L84.3334 7.18734L90.3334 7.70817L85.7917 11.6457L87.1459 17.4998L82.0001 14.3957L76.8542 17.4998Z" fill="#101014"/>
<path d="M100.854 17.4998L102.208 11.6457L97.6667 7.70817L103.667 7.18734L106 1.6665L108.333 7.18734L114.333 7.70817L109.792 11.6457L111.146 17.4998L106 14.3957L100.854 17.4998Z" fill="#101014"/>
</g>
<defs>
<clipPath id="clip0_134_23975">
<rect width="116" height="20" fill="white"/>
</clipPath>
</defs>
</svg>
